<svg width="30" height="25" viewBox="0 0 30 25" fill="none" xmlns="http://www.w3.org/2000/svg">
<rect width="30" height="25" rx="10" fill="white" fill-opacity="0.1"/>
<path d="M5.25 18.2812C5.25 18.8853 5.73969 19.375 6.34375 19.375H23.6563C24.2603 19.375 24.75 18.8853 24.75 18.2812V18.2812C24.75 17.6772 24.2603 17.1875 23.6563 17.1875H6.34375C5.73969 17.1875 5.25 17.6772 5.25 18.2812V18.2812ZM5.25 12.8125C5.25 13.4166 5.73969 13.9062 6.34375 13.9062H23.6563C24.2603 13.9062 24.75 13.4166 24.75 12.8125V12.8125C24.75 12.2084 24.2603 11.7188 23.6563 11.7188H6.34375C5.73969 11.7188 5.25 12.2084 5.25 12.8125V12.8125ZM6.34375 6.25C5.73969 6.25 5.25 6.73969 5.25 7.34375V7.34375C5.25 7.94781 5.73969 8.4375 6.34375 8.4375H23.6563C24.2603 8.4375 24.75 7.94781 24.75 7.34375V7.34375C24.75 6.73969 24.2603 6.25 23.6563 6.25H6.34375Z" fill="white"/>
</svg>
